<?xml version="1.0" encoding="UTF-8" standalone="no"?>
<!-- Created with Inkscape (http://www.inkscape.org/) -->

<svg
   xmlns:dc="http://purl.org/dc/elements/1.1/"
   xmlns:cc="http://creativecommons.org/ns#"
   xmlns:rdf="http://www.w3.org/1999/02/22-rdf-syntax-ns#"
   xmlns:svg="http://www.w3.org/2000/svg"
   xmlns="http://www.w3.org/2000/svg"
   xmlns:xlink="http://www.w3.org/1999/xlink"
   xmlns:sodipodi="http://sodipodi.sourceforge.net/DTD/sodipodi-0.dtd"
   xmlns:inkscape="http://www.inkscape.org/namespaces/inkscape"
   width="190"
   height="190.00821"
   id="svg2"
   version="1.1"
   inkscape:version="0.48.4 r9939"
   sodipodi:docname="New document 1">
  <defs
     id="defs4">
    <linearGradient
       id="linearGradient3895">
      <stop
         style="stop-color:#f4f4f4;stop-opacity:1;"
         offset="0"
         id="stop3897" />
      <stop
         id="stop3933"
         offset="0.31867284"
         style="stop-color:#cacaca;stop-opacity:1;" />
      <stop
         id="stop3903"
         offset="0.44899184"
         style="stop-color:#a1a1a1;stop-opacity:1;" />
      <stop
         style="stop-color:#777777;stop-opacity:1;"
         offset="0.72662801"
         id="stop3935" />
      <stop
         style="stop-color:#4d4d4d;stop-opacity:1"
         offset="1"
         id="stop3899" />
    </linearGradient>
    <linearGradient
       id="linearGradient3849"
       inkscape:collect="always">
      <stop
         id="stop3851"
         offset="0"
         style="stop-color:#e6e6e6;stop-opacity:1" />
      <stop
         style="stop-color:#666666;stop-opacity:1"
         offset="0.18518518"
         id="stop3857" />
      <stop
         style="stop-color:#cccccc;stop-opacity:1"
         offset="0.4074074"
         id="stop3855" />
      <stop
         id="stop3853"
         offset="1"
         style="stop-color:#4d4d4d;stop-opacity:1" />
    </linearGradient>
    <linearGradient
       inkscape:collect="always"
       id="linearGradient3839">
      <stop
         style="stop-color:#e6e6e6;stop-opacity:1"
         offset="0"
         id="stop3841" />
      <stop
         id="stop3859"
         offset="0.55921602"
         style="stop-color:#f2f2f2;stop-opacity:1" />
      <stop
         style="stop-color:#333333;stop-opacity:1"
         offset="1"
         id="stop3843" />
    </linearGradient>
    <radialGradient
       inkscape:collect="always"
       xlink:href="#linearGradient3839"
       id="radialGradient3845"
       cx="340"
       cy="352.36459"
       fx="340"
       fy="352.36459"
       r="85"
       gradientTransform="matrix(1.8823529,0,0,1.7051334,-300,-248.46644)"
       gradientUnits="userSpaceOnUse" />
    <linearGradient
       inkscape:collect="always"
       xlink:href="#linearGradient3849"
       id="linearGradient3847"
       x1="335"
       y1="322.36218"
       x2="470"
       y2="472.36218"
       gradientUnits="userSpaceOnUse" />
    <radialGradient
       inkscape:collect="always"
       xlink:href="#linearGradient3839"
       id="radialGradient3867"
       cx="445"
       cy="452.36218"
       fx="445"
       fy="452.36218"
       r="76"
       gradientUnits="userSpaceOnUse"
       gradientTransform="matrix(1.7763158,0,0,1.7280637,-345.46053,-329.34848)" />
    <linearGradient
       inkscape:collect="always"
       xlink:href="#linearGradient3849"
       id="linearGradient3875"
       x1="360"
       y1="362.36218"
       x2="435"
       y2="447.36218"
       gradientUnits="userSpaceOnUse" />
    <radialGradient
       inkscape:collect="always"
       xlink:href="#linearGradient3839"
       id="radialGradient3883"
       cx="376"
       cy="380.69553"
       fx="376"
       fy="380.69553"
       r="45"
       gradientUnits="userSpaceOnUse"
       gradientTransform="matrix(1.6666667,0,0,1.5,-246.66667,-188.68109)" />
    <radialGradient
       inkscape:collect="always"
       xlink:href="#linearGradient3839"
       id="radialGradient3891"
       cx="415"
       cy="417.36218"
       fx="415"
       fy="417.36218"
       r="31"
       gradientUnits="userSpaceOnUse"
       gradientTransform="matrix(1.4516129,0,0,1.4516129,-187.41935,-188.48615)" />
    <radialGradient
       inkscape:collect="always"
       xlink:href="#linearGradient3895"
       id="radialGradient3901"
       cx="395"
       cy="337.36218"
       fx="395"
       fy="337.36218"
       r="15"
       gradientUnits="userSpaceOnUse"
       gradientTransform="matrix(1.4666667,0,0,1.4666667,-184.33333,-157.43569)" />
    <radialGradient
       inkscape:collect="always"
       xlink:href="#linearGradient3895"
       id="radialGradient3907"
       gradientUnits="userSpaceOnUse"
       gradientTransform="matrix(1.4666667,0,0,1.4666667,-184.33333,-157.43569)"
       cx="395"
       cy="337.36218"
       fx="395"
       fy="337.36218"
       r="15" />
    <radialGradient
       inkscape:collect="always"
       xlink:href="#linearGradient3895"
       id="radialGradient3911"
       gradientUnits="userSpaceOnUse"
       gradientTransform="matrix(1.4666667,0,0,1.4666667,-184.33333,-157.43569)"
       cx="395"
       cy="337.36218"
       fx="395"
       fy="337.36218"
       r="15" />
    <radialGradient
       inkscape:collect="always"
       xlink:href="#linearGradient3895"
       id="radialGradient3915"
       gradientUnits="userSpaceOnUse"
       gradientTransform="matrix(1.4666667,0,0,1.4666667,-184.33333,-157.43569)"
       cx="395"
       cy="337.36218"
       fx="395"
       fy="337.36218"
       r="15" />
    <radialGradient
       inkscape:collect="always"
       xlink:href="#linearGradient3895"
       id="radialGradient3925"
       gradientUnits="userSpaceOnUse"
       gradientTransform="matrix(1.4666667,0,0,1.4666667,-184.33333,-157.43569)"
       cx="395"
       cy="337.36218"
       fx="395"
       fy="337.36218"
       r="15" />
    <radialGradient
       inkscape:collect="always"
       xlink:href="#linearGradient3895"
       id="radialGradient3927"
       gradientUnits="userSpaceOnUse"
       gradientTransform="matrix(1.4666667,0,0,1.4666667,-184.33333,-157.43569)"
       cx="395"
       cy="337.36218"
       fx="395"
       fy="337.36218"
       r="15" />
    <radialGradient
       inkscape:collect="always"
       xlink:href="#linearGradient3895"
       id="radialGradient3929"
       gradientUnits="userSpaceOnUse"
       gradientTransform="matrix(1.4666667,0,0,1.4666667,-184.33333,-157.43569)"
       cx="395"
       cy="337.36218"
       fx="395"
       fy="337.36218"
       r="15" />
    <radialGradient
       inkscape:collect="always"
       xlink:href="#linearGradient3895"
       id="radialGradient3931"
       gradientUnits="userSpaceOnUse"
       gradientTransform="matrix(1.4666667,0,0,1.4666667,-184.33333,-157.43569)"
       cx="395"
       cy="337.36218"
       fx="395"
       fy="337.36218"
       r="15" />
    <linearGradient
       inkscape:collect="always"
       xlink:href="#linearGradient3849"
       id="linearGradient3953"
       gradientUnits="userSpaceOnUse"
       x1="360"
       y1="362.36218"
       x2="435"
       y2="447.36218" />
    <radialGradient
       inkscape:collect="always"
       xlink:href="#linearGradient3839"
       id="radialGradient3955"
       gradientUnits="userSpaceOnUse"
       gradientTransform="matrix(1.6666667,0,0,1.5,-246.66667,-188.68109)"
       cx="376"
       cy="380.69553"
       fx="376"
       fy="380.69553"
       r="45" />
    <radialGradient
       inkscape:collect="always"
       xlink:href="#linearGradient3839"
       id="radialGradient3957"
       gradientUnits="userSpaceOnUse"
       gradientTransform="matrix(1.7763158,0,0,1.7280637,-345.46053,-329.34848)"
       cx="445"
       cy="452.36218"
       fx="445"
       fy="452.36218"
       r="76" />
    <linearGradient
       inkscape:collect="always"
       xlink:href="#linearGradient3849"
       id="linearGradient3959"
       gradientUnits="userSpaceOnUse"
       x1="335"
       y1="322.36218"
       x2="470"
       y2="472.36218" />
    <radialGradient
       inkscape:collect="always"
       xlink:href="#linearGradient3839"
       id="radialGradient3961"
       gradientUnits="userSpaceOnUse"
       gradientTransform="matrix(1.8823529,0,0,1.7051334,-300,-248.46644)"
       cx="340"
       cy="352.36459"
       fx="340"
       fy="352.36459"
       r="85" />
    <radialGradient
       inkscape:collect="always"
       xlink:href="#linearGradient3839"
       id="radialGradient3963"
       gradientUnits="userSpaceOnUse"
       gradientTransform="matrix(1.4516129,0,0,1.4516129,-187.41935,-188.48615)"
       cx="415"
       cy="417.36218"
       fx="415"
       fy="417.36218"
       r="31" />
    <radialGradient
       inkscape:collect="always"
       xlink:href="#linearGradient3895"
       id="radialGradient3965"
       gradientUnits="userSpaceOnUse"
       gradientTransform="matrix(1.4666667,0,0,1.4666667,-184.33333,-157.43569)"
       cx="395"
       cy="337.36218"
       fx="395"
       fy="337.36218"
       r="15" />
    <radialGradient
       inkscape:collect="always"
       xlink:href="#linearGradient3895"
       id="radialGradient3967"
       gradientUnits="userSpaceOnUse"
       gradientTransform="matrix(1.4666667,0,0,1.4666667,-184.33333,-157.43569)"
       cx="395"
       cy="337.36218"
       fx="395"
       fy="337.36218"
       r="15" />
    <radialGradient
       inkscape:collect="always"
       xlink:href="#linearGradient3895"
       id="radialGradient3969"
       gradientUnits="userSpaceOnUse"
       gradientTransform="matrix(1.4666667,0,0,1.4666667,-184.33333,-157.43569)"
       cx="395"
       cy="337.36218"
       fx="395"
       fy="337.36218"
       r="15" />
    <radialGradient
       inkscape:collect="always"
       xlink:href="#linearGradient3895"
       id="radialGradient3971"
       gradientUnits="userSpaceOnUse"
       gradientTransform="matrix(1.4666667,0,0,1.4666667,-184.33333,-157.43569)"
       cx="395"
       cy="337.36218"
       fx="395"
       fy="337.36218"
       r="15" />
    <radialGradient
       inkscape:collect="always"
       xlink:href="#linearGradient3895"
       id="radialGradient3973"
       gradientUnits="userSpaceOnUse"
       gradientTransform="matrix(1.4666667,0,0,1.4666667,-184.33333,-157.43569)"
       cx="395"
       cy="337.36218"
       fx="395"
       fy="337.36218"
       r="15" />
    <radialGradient
       inkscape:collect="always"
       xlink:href="#linearGradient3895"
       id="radialGradient3975"
       gradientUnits="userSpaceOnUse"
       gradientTransform="matrix(1.4666667,0,0,1.4666667,-184.33333,-157.43569)"
       cx="395"
       cy="337.36218"
       fx="395"
       fy="337.36218"
       r="15" />
    <radialGradient
       inkscape:collect="always"
       xlink:href="#linearGradient3895"
       id="radialGradient3977"
       gradientUnits="userSpaceOnUse"
       gradientTransform="matrix(1.4666667,0,0,1.4666667,-184.33333,-157.43569)"
       cx="395"
       cy="337.36218"
       fx="395"
       fy="337.36218"
       r="15" />
    <radialGradient
       inkscape:collect="always"
       xlink:href="#linearGradient3895"
       id="radialGradient3979"
       gradientUnits="userSpaceOnUse"
       gradientTransform="matrix(1.4666667,0,0,1.4666667,-184.33333,-157.43569)"
       cx="395"
       cy="337.36218"
       fx="395"
       fy="337.36218"
       r="15" />
  </defs>
  <sodipodi:namedview
     id="base"
     pagecolor="#ffffff"
     bordercolor="#666666"
     borderopacity="1.0"
     inkscape:pageopacity="0.0"
     inkscape:pageshadow="2"
     inkscape:zoom="1.4142136"
     inkscape:cx="109.30091"
     inkscape:cy="58.849179"
     inkscape:document-units="px"
     inkscape:current-layer="layer1"
     showgrid="false"
     inkscape:object-paths="true"
     inkscape:snap-intersection-paths="true"
     inkscape:snap-smooth-nodes="true"
     inkscape:object-nodes="true"
     fit-margin-top="10"
     fit-margin-left="10"
     fit-margin-right="10"
     fit-margin-bottom="10"
     inkscape:window-width="1280"
     inkscape:window-height="962"
     inkscape:window-x="-8"
     inkscape:window-y="-8"
     inkscape:window-maximized="1">
    <inkscape:grid
       type="xygrid"
       id="grid2987"
       empspacing="5"
       visible="true"
       enabled="true"
       snapvisiblegridlinesonly="true"
       originx="-305px"
       originy="-554.98718px" />
  </sodipodi:namedview>
  <metadata
     id="metadata7">
    <rdf:RDF>
      <cc:Work
         rdf:about="">
        <dc:format>image/svg+xml</dc:format>
        <dc:type
           rdf:resource="http://purl.org/dc/dcmitype/StillImage" />
        <dc:title></dc:title>
      </cc:Work>
    </rdf:RDF>
  </metadata>
  <g
     inkscape:label="Layer 1"
     inkscape:groupmode="layer"
     id="layer1"
     transform="translate(-305,-307.36679)">
    <g
       id="g3937">
      <path
         id="path3045"
         d="m 400,357.375 c -24.85281,0 -45,20.14719 -45,45 0,24.85281 20.14719,45 45,45 24.85281,0 45,-20.14719 45,-45 0,-24.85281 -20.14719,-45 -45,-45 z m 0,14 c 17.12083,0 31,13.87917 31,31 0,17.12083 -13.87917,31 -31,31 -17.12083,0 -31,-13.87917 -31,-31 0,-17.12083 13.87917,-31 31,-31 z"
         style="fill:url(#linearGradient3953);fill-opacity:1;stroke:none"
         inkscape:connector-curvature="0" />
      <path
         id="path3042"
         d="m 400,357.375 c -24.85281,0 -45,20.14719 -45,45 0,24.85281 20.14719,45 45,45 24.85281,0 45,-20.14719 45,-45 0,-24.85281 -20.14719,-45 -45,-45 z m 0,1 c 24.30053,0 44,19.69947 44,44 0,24.30053 -19.69947,44 -44,44 -24.30053,0 -44,-19.69947 -44,-44 0,-24.30053 19.69947,-44 44,-44 z"
         style="fill:url(#radialGradient3955);fill-opacity:1;stroke:none"
         inkscape:connector-curvature="0" />
      <path
         id="path2994"
         d="m 400,326.375 c -41.97364,0 -76,34.02636 -76,76 0,41.97364 34.02636,76 76,76 41.97364,0 76,-34.02636 76,-76 0,-41.97364 -34.02636,-76 -76,-76 z m 0,1 c 41.42136,0 75,33.57864 75,75 0,41.42136 -33.57864,75 -75,75 -41.42136,0 -75,-33.57864 -75,-75 0,-41.42136 33.57864,-75 75,-75 z"
         style="fill:url(#radialGradient3957);fill-opacity:1;stroke:none"
         inkscape:connector-curvature="0" />
      <path
         id="path3011"
         d="m 397.8125,317.375 c -45.93027,1.16365 -82.8125,38.7893 -82.8125,85 0,46.9442 38.0558,85 85,85 46.9442,0 85,-38.0558 85,-85 0,-46.9442 -38.0558,-85 -85,-85 -0.7335,0 -1.45845,-0.0185 -2.1875,0 z m 2.1875,9 c 41.97364,0 76,34.02636 76,76 0,41.97364 -34.02636,76 -76,76 -41.97364,0 -76,-34.02636 -76,-76 0,-41.97364 34.02636,-76 76,-76 z"
         style="fill:url(#linearGradient3959);fill-opacity:1;stroke:none"
         inkscape:connector-curvature="0" />
      <path
         id="path3006"
         d="m 397.8125,317.375 c -45.93027,1.16365 -82.8125,38.7893 -82.8125,85 0,46.9442 38.0558,85 85,85 46.9442,0 85,-38.0558 85,-85 0,-46.9442 -38.0558,-85 -85,-85 -0.7335,0 -1.45845,-0.0185 -2.1875,0 z m 0.0312,1 c 0.72047,-0.0183 1.43138,0 2.15625,0 46.39192,0 84,37.60808 84,84 0,46.39192 -37.60808,84 -84,84 -46.39192,0 -84,-37.60808 -84,-84 0,-45.66705 36.45384,-82.85004 81.84375,-84 z"
         style="fill:url(#radialGradient3961);fill-opacity:1;stroke:none"
         inkscape:connector-curvature="0" />
      <path
         id="path3040"
         d="m 400,371.375 c -17.12083,0 -31,13.87917 -31,31 0,17.12083 13.87917,31 31,31 17.12083,0 31,-13.87917 31,-31 0,-17.12083 -13.87917,-31 -31,-31 z m 0,1 c 16.56854,0 30,13.43146 30,30 0,16.56854 -13.43146,30 -30,30 -16.56854,0 -30,-13.43146 -30,-30 0,-16.56854 13.43146,-30 30,-30 z"
         style="fill:url(#radialGradient3963);fill-opacity:1;stroke:none"
         inkscape:connector-curvature="0" />
      <path
         d="m 415,342.36218 c 0,8.28427 -6.71573,15 -15,15 -8.28427,0 -15,-6.71573 -15,-15 0,-8.28427 6.71573,-15 15,-15 8.28427,0 15,6.71573 15,15 z"
         sodipodi:ry="15"
         sodipodi:rx="15"
         sodipodi:cy="342.36218"
         sodipodi:cx="400"
         id="path3056"
         style="fill:url(#radialGradient3965);fill-opacity:1;stroke:none"
         sodipodi:type="arc"
         transform="translate(60,60)" />
      <path
         transform="translate(-60,60)"
         sodipodi:type="arc"
         style="fill:url(#radialGradient3967);fill-opacity:1;stroke:none"
         id="path3905"
         sodipodi:cx="400"
         sodipodi:cy="342.36218"
         sodipodi:rx="15"
         sodipodi:ry="15"
         d="m 415,342.36218 c 0,8.28427 -6.71573,15 -15,15 -8.28427,0 -15,-6.71573 -15,-15 0,-8.28427 6.71573,-15 15,-15 8.28427,0 15,6.71573 15,15 z" />
      <path
         d="m 415,342.36218 c 0,8.28427 -6.71573,15 -15,15 -8.28427,0 -15,-6.71573 -15,-15 0,-8.28427 6.71573,-15 15,-15 8.28427,0 15,6.71573 15,15 z"
         sodipodi:ry="15"
         sodipodi:rx="15"
         sodipodi:cy="342.36218"
         sodipodi:cx="400"
         id="path3909"
         style="fill:url(#radialGradient3969);fill-opacity:1;stroke:none"
         sodipodi:type="arc" />
      <path
         transform="translate(0,120)"
         sodipodi:type="arc"
         style="fill:url(#radialGradient3971);fill-opacity:1;stroke:none"
         id="path3913"
         sodipodi:cx="400"
         sodipodi:cy="342.36218"
         sodipodi:rx="15"
         sodipodi:ry="15"
         d="m 415,342.36218 c 0,8.28427 -6.71573,15 -15,15 -8.28427,0 -15,-6.71573 -15,-15 0,-8.28427 6.71573,-15 15,-15 8.28427,0 15,6.71573 15,15 z" />
      <path
         transform="matrix(0.70710678,0.70710679,-0.70710679,0.70710678,401.67031,-80.140745)"
         sodipodi:type="arc"
         style="fill:url(#radialGradient3973);fill-opacity:1;stroke:none"
         id="path3917"
         sodipodi:cx="400"
         sodipodi:cy="342.36218"
         sodipodi:rx="15"
         sodipodi:ry="15"
         d="m 415,342.36218 c 0,8.28427 -6.71573,15 -15,15 -8.28427,0 -15,-6.71573 -15,-15 0,-8.28427 6.71573,-15 15,-15 8.28427,0 15,6.71573 15,15 z" />
      <path
         d="m 415,342.36218 c 0,8.28427 -6.71573,15 -15,15 -8.28427,0 -15,-6.71573 -15,-15 0,-8.28427 6.71573,-15 15,-15 8.28427,0 15,6.71573 15,15 z"
         sodipodi:ry="15"
         sodipodi:rx="15"
         sodipodi:cy="342.36218"
         sodipodi:cx="400"
         id="path3919"
         style="fill:url(#radialGradient3975);fill-opacity:1;stroke:none"
         sodipodi:type="arc"
         transform="matrix(0.70710678,0.70710679,-0.70710679,0.70710678,316.81751,-164.99355)" />
      <path
         transform="matrix(0.70710678,0.70710679,-0.70710679,0.70710678,401.67033,-164.99356)"
         sodipodi:type="arc"
         style="fill:url(#radialGradient3977);fill-opacity:1;stroke:none"
         id="path3921"
         sodipodi:cx="400"
         sodipodi:cy="342.36218"
         sodipodi:rx="15"
         sodipodi:ry="15"
         d="m 415,342.36218 c 0,8.28427 -6.71573,15 -15,15 -8.28427,0 -15,-6.71573 -15,-15 0,-8.28427 6.71573,-15 15,-15 8.28427,0 15,6.71573 15,15 z" />
      <path
         d="m 415,342.36218 c 0,8.28427 -6.71573,15 -15,15 -8.28427,0 -15,-6.71573 -15,-15 0,-8.28427 6.71573,-15 15,-15 8.28427,0 15,6.71573 15,15 z"
         sodipodi:ry="15"
         sodipodi:rx="15"
         sodipodi:cy="342.36218"
         sodipodi:cx="400"
         id="path3923"
         style="fill:url(#radialGradient3979);fill-opacity:1;stroke:none"
         sodipodi:type="arc"
         transform="matrix(0.70710678,0.70710679,-0.70710679,0.70710678,316.8175,-80.140743)" />
    </g>
  </g>
</svg>
