<?xml version="1.0" encoding="iso-8859-1"?>
<!-- Uploaded to: SVG Repo, www.svgrepo.com, Generator: SVG Repo Mixer Tools -->
<svg fill="#000000" height="800px" width="800px" version="1.1" id="Layer_1" xmlns="http://www.w3.org/2000/svg" xmlns:xlink="http://www.w3.org/1999/xlink" 
	 viewBox="0 0 512.002 512.002" xml:space="preserve">
<g>
	<g>
		<g>
			<path d="M417.382,326.504h1.063c5.871,0,10.632-4.76,10.632-10.632s-4.761-10.632-10.632-10.632h-1.063
				c-5.871,0-10.632,4.76-10.632,10.632S411.51,326.504,417.382,326.504z"/>
			<path d="M475.468,114.686c5.871,0,10.632-4.76,10.632-10.632s-4.761-10.632-10.632-10.632h-0.587V60.264h0.587
				c5.871,0,10.632-4.76,10.632-10.632C486.1,43.76,481.339,39,475.468,39h-22.71V10.632C452.758,4.76,447.997,0,442.126,0h-51.133
				c-5.871,0-10.632,4.76-10.632,10.632V39H231.071c-5.871,0-10.632,4.76-10.632,10.632c0,5.872,4.761,10.632,10.632,10.632h5.882
				v33.158h-5.882c-5.871,0-10.632,4.76-10.632,10.632s4.761,10.632,10.632,10.632h5.882v16.387h-40.499
				c-5.871,0-10.632,4.76-10.632,10.632v28.367H36.534c-5.871,0-10.632,4.76-10.632,10.632c0,5.872,4.761,10.632,10.632,10.632
				h5.882v33.159h-5.882c-5.871,0-10.632,4.76-10.632,10.632c0,5.872,4.761,10.632,10.632,10.632h5.882v190.554h-5.882
				c-5.871,0-10.632,4.76-10.632,10.632c0,5.872,4.761,10.632,10.632,10.632h5.882v33.159h-5.882
				c-5.871,0-10.632,4.76-10.632,10.632c0,5.872,4.761,10.632,10.632,10.632h244.397c5.871,0,10.632-4.76,10.632-10.632
				c0-5.872-4.761-10.632-10.632-10.632h-0.587v-33.159h0.587c5.871,0,10.632-4.76,10.632-10.632
				c0-5.872-4.761-10.632-10.632-10.632h-0.587v-55.388h195.124c5.871,0,10.632-4.76,10.632-10.632
				c0-5.872-4.761-10.632-10.632-10.632h-0.587v-33.159h0.587c5.871,0,10.632-4.76,10.632-10.632s-4.761-10.632-10.632-10.632
				h-0.587V114.686H475.468z M401.625,21.264h29.869V39h-29.869V21.264z M258.217,60.264h195.4v33.158h-195.4V60.264z
				 M207.088,152.338h29.867v17.735h-29.867V152.338z M259.08,490.736H63.68v-33.159h195.4V490.736z M259.08,436.313H63.68V245.76
				h195.4V436.313z M259.08,224.496H63.68v-33.159h195.4V224.496z M453.618,359.662H280.344v-33.159h91.187
				c5.871,0,10.632-4.76,10.632-10.632s-4.761-10.632-10.632-10.632h-91.187v-59.48h0.587c5.871,0,10.632-4.76,10.632-10.632
				c0-5.872-4.761-10.632-10.632-10.632h-0.587v-33.159h0.587c5.871,0,10.632-4.76,10.632-10.632
				c0-5.872-4.761-10.632-10.632-10.632h-22.71l-0.002-55.386h195.4V359.662z"/>
			<path d="M355.918,283.98c27.526,0,49.921-22.394,49.921-49.921c0-23.445-33.981-81.527-40.793-92.932
				c-1.919-3.213-5.385-5.181-9.128-5.181c-3.742,0-7.209,1.968-9.128,5.181c-6.812,11.405-40.793,69.487-40.793,92.932
				C305.997,261.586,328.391,283.98,355.918,283.98z M355.918,167.916c13.94,25.129,28.657,55.59,28.657,66.143
				c0,15.801-12.855,28.657-28.657,28.657c-15.801,0-28.657-12.855-28.657-28.657C327.261,223.506,341.978,193.045,355.918,167.916z
				"/>
			<path d="M161.379,415.053c27.526,0,49.92-22.394,49.92-49.921c0.001-23.445-33.979-81.527-40.792-92.932
				c-1.919-3.213-5.385-5.181-9.128-5.181s-7.209,1.968-9.128,5.181c-6.812,11.405-40.793,69.487-40.793,92.932
				C111.458,392.659,133.853,415.053,161.379,415.053z M161.379,298.988c13.94,25.129,28.656,55.59,28.656,66.143
				c0.001,15.802-12.854,28.657-28.656,28.657s-28.657-12.855-28.657-28.657C132.722,354.578,147.439,324.117,161.379,298.988z"/>
		</g>
	</g>
</g>
</svg>