<?xml version="1.0" encoding="iso-8859-1"?>
<!-- Generator: Adobe Illustrator 19.0.0, SVG Export Plug-In . SVG Version: 6.00 Build 0)  -->
<svg version="1.1" id="Capa_1" xmlns="http://www.w3.org/2000/svg" xmlns:xlink="http://www.w3.org/1999/xlink" x="0px" y="0px"
	 viewBox="0 0 463 463" style="enable-background:new 0 0 463 463;" xml:space="preserve">
<g>
	<path d="M231.5,72C218.542,72,208,82.542,208,95.5s10.542,23.5,23.5,23.5S255,108.458,255,95.5S244.458,72,231.5,72z M231.5,104
		c-4.687,0-8.5-3.813-8.5-8.5s3.813-8.5,8.5-8.5s8.5,3.813,8.5,8.5S236.187,104,231.5,104z"/>
	<path d="M231.5,407c12.958,0,23.5-10.542,23.5-23.5S244.458,360,231.5,360S208,370.542,208,383.5S218.542,407,231.5,407z
		 M231.5,375c4.687,0,8.5,3.813,8.5,8.5s-3.813,8.5-8.5,8.5s-8.5-3.813-8.5-8.5S226.813,375,231.5,375z"/>
	<path d="M407.5,232H133.403c1.027-2.638,1.597-5.503,1.597-8.5s-0.57-5.862-1.597-8.5H319.5c12.958,0,23.5-10.542,23.5-23.5
		S332.458,168,319.5,168H45.403c1.027-2.638,1.597-5.503,1.597-8.5s-0.57-5.862-1.597-8.5H231.5c30.603,0,55.5-24.897,55.5-55.5v-88
		c0-4.143-3.357-7.5-7.5-7.5S272,3.357,272,7.5v50.11C261.865,46.784,247.464,40,231.5,40C200.897,40,176,64.897,176,95.5
		c0,15.964,6.784,30.365,17.61,40.5H23.5C10.542,136,0,146.542,0,159.5S10.542,183,23.5,183h274.097
		c-1.027,2.638-1.597,5.503-1.597,8.5s0.57,5.862,1.597,8.5H111.5C98.542,200,88,210.542,88,223.5S98.542,247,111.5,247h258.11
		C358.784,257.135,352,271.536,352,287.5s6.784,30.365,17.61,40.5H231.5c-30.603,0-55.5,24.897-55.5,55.5v72
		c0,4.143,3.357,7.5,7.5,7.5s7.5-3.357,7.5-7.5v-34.11c10.135,10.826,24.536,17.61,40.5,17.61c30.603,0,55.5-24.897,55.5-55.5
		c0-15.964-6.784-30.365-17.61-40.5H407.5c30.603,0,55.5-24.897,55.5-55.5S438.103,232,407.5,232z M191,95.5
		c0-22.332,18.168-40.5,40.5-40.5S272,73.168,272,95.5S253.832,136,231.5,136S191,117.832,191,95.5z M23.5,151
		c4.687,0,8.5,3.813,8.5,8.5s-3.813,8.5-8.5,8.5s-8.5-3.813-8.5-8.5S18.813,151,23.5,151z M311,191.5c0-4.687,3.813-8.5,8.5-8.5
		s8.5,3.813,8.5,8.5s-3.813,8.5-8.5,8.5S311,196.187,311,191.5z M111.5,215c4.687,0,8.5,3.813,8.5,8.5s-3.813,8.5-8.5,8.5
		s-8.5-3.813-8.5-8.5S106.813,215,111.5,215z M272,383.5c0,22.332-18.168,40.5-40.5,40.5S191,405.832,191,383.5
		s18.168-40.5,40.5-40.5S272,361.168,272,383.5z M407.5,328c-22.332,0-40.5-18.168-40.5-40.5s18.168-40.5,40.5-40.5
		s40.5,18.168,40.5,40.5S429.832,328,407.5,328z"/>
	<path d="M407.5,264c-12.958,0-23.5,10.542-23.5,23.5s10.542,23.5,23.5,23.5s23.5-10.542,23.5-23.5S420.458,264,407.5,264z
		 M407.5,296c-4.687,0-8.5-3.813-8.5-8.5s3.813-8.5,8.5-8.5s8.5,3.813,8.5,8.5S412.187,296,407.5,296z"/>
</g>
<g>
</g>
<g>
</g>
<g>
</g>
<g>
</g>
<g>
</g>
<g>
</g>
<g>
</g>
<g>
</g>
<g>
</g>
<g>
</g>
<g>
</g>
<g>
</g>
<g>
</g>
<g>
</g>
<g>
</g>
</svg>
