<?xml version="1.0" encoding="iso-8859-1"?>
<!-- Generator: Adobe Illustrator 19.0.0, SVG Export Plug-In . SVG Version: 6.00 Build 0)  -->
<svg version="1.1" id="Layer_1" xmlns="http://www.w3.org/2000/svg" xmlns:xlink="http://www.w3.org/1999/xlink" x="0px" y="0px"
	 viewBox="0 0 297.002 297.002" style="enable-background:new 0 0 297.002 297.002;" xml:space="preserve">
<g id="XMLID_37_">
	<g>
		<polygon style="fill:#95A5A6;" points="61.568,256.562 54.418,263.712 33.288,242.582 40.438,235.442 		"/>
		<polygon style="fill:#3498DB;" points="18.828,241.792 55.208,278.182 48.068,285.322 11.678,248.942 		"/>
		<polygon style="fill:#3498DB;" points="285.068,88.492 274.238,97.882 199.118,22.762 208.508,11.932 		"/>
		<polygon style="fill:#3498DB;" points="210.148,153.422 157.548,199.012 97.988,139.462 143.578,86.852 		"/>
		<path style="fill:#BDC3C7;" d="M91.638,146.782l58.58,58.59l-61.05,52.91c-3.67,3.17-9.23,2.98-12.66-0.46l-37.33-37.33
			c-3.43-3.43-3.63-8.99-0.45-12.66L91.638,146.782z"/>
		<polygon style="fill:#BDC3C7;" points="266.908,104.232 217.478,147.072 149.928,79.522 192.768,30.092 		"/>
		<path d="M295.588,85.332c0.95,0.95,1.46,2.25,1.41,3.59s-0.65,2.6-1.67,3.48l-199.83,173.19c-3.55,3.08-7.99,4.61-12.41,4.61
			c-4.88,0-9.75-1.86-13.42-5.54l-1.26-1.26l-7.15,7.15l4.21,4.21c1.89,1.89,1.89,4.95,0,6.84l-13.98,13.98
			c-0.91,0.91-2.14,1.42-3.42,1.42c-1.29,0-2.52-0.51-3.42-1.42l-43.23-43.22c-1.89-1.89-1.89-4.96,0-6.84l13.99-13.99
			c0.9-0.91,2.13-1.42,3.42-1.42c1.28,0,2.51,0.51,3.42,1.42l4.2,4.21l7.15-7.15l-1.26-1.26c-7.01-7-7.41-18.35-0.92-25.83
			l173.18-199.83c0.88-1.02,2.14-1.62,3.48-1.67c1.34-0.04,2.65,0.47,3.6,1.42L295.588,85.332z M274.238,97.882l10.83-9.39
			l-76.56-76.56l-9.39,10.83L274.238,97.882z M217.478,147.072l49.43-42.84l-74.14-74.14l-42.84,49.43L217.478,147.072z
			 M157.548,199.012l52.6-45.59l-66.57-66.57l-45.59,52.61L157.548,199.012z M150.218,205.372l-58.58-58.59l-52.91,61.05
			c-3.18,3.67-2.98,9.23,0.45,12.66l37.33,37.33c3.43,3.44,8.99,3.63,12.66,0.46L150.218,205.372z M54.418,263.712l7.15-7.15
			l-21.13-21.12l-7.15,7.14L54.418,263.712z M55.208,278.182l-36.38-36.39l-7.15,7.15l36.39,36.38L55.208,278.182z"/>
	</g>
</g>
<g>
</g>
<g>
</g>
<g>
</g>
<g>
</g>
<g>
</g>
<g>
</g>
<g>
</g>
<g>
</g>
<g>
</g>
<g>
</g>
<g>
</g>
<g>
</g>
<g>
</g>
<g>
</g>
<g>
</g>
</svg>
