<?xml version="1.0" standalone="no"?>
<!DOCTYPE svg PUBLIC "-//W3C//DTD SVG 20010904//EN"
 "http://www.w3.org/TR/2001/REC-SVG-20010904/DTD/svg10.dtd">
<svg version="1.0" xmlns="http://www.w3.org/2000/svg"
 width="300.000000pt" height="250.000000pt" viewBox="0 0 300.000000 250.000000"
 preserveAspectRatio="xMidYMid meet">

<g transform="translate(0.000000,250.000000) scale(0.100000,-0.100000)"
fill="#000000" stroke="none">
<path d="M1845 2273 c14 -273 14 -261 -7 -267 -14 -3 -22 1 -25 15 -4 14 -11
18 -32 13 -48 -11 -51 -13 -51 -50 0 -21 -7 -46 -17 -56 -15 -17 -15 -18 0
-18 10 0 17 -4 17 -9 0 -4 18 -29 40 -54 22 -25 40 -50 40 -55 0 -6 4 -12 8
-14 5 -1 31 -32 57 -68 27 -36 56 -73 64 -82 35 -38 144 -175 181 -228 14 -19
33 -43 43 -53 10 -10 15 -23 11 -29 -4 -6 -3 -8 4 -4 6 3 23 -12 39 -36 15
-23 40 -54 56 -69 15 -15 27 -32 27 -38 0 -6 4 -11 10 -11 5 0 16 -16 25 -35
20 -40 62 -85 81 -85 21 0 17 8 -26 57 -22 25 -40 52 -40 59 0 7 -9 20 -21 28
-13 9 -18 19 -14 27 6 8 4 10 -5 4 -10 -6 -12 -4 -7 8 4 10 2 16 -4 14 -6 -1
-16 7 -22 18 -7 11 -14 22 -17 25 -3 3 -11 18 -18 33 -7 15 -16 25 -22 22 -11
-7 -32 29 -22 40 4 5 1 5 -6 1 -8 -5 -16 2 -23 22 -6 17 -17 33 -25 36 -8 3
-19 18 -25 33 -8 22 -12 25 -21 13 -8 -12 -9 -11 -4 4 4 12 0 26 -11 36 -30
29 -63 75 -85 118 -6 12 -18 21 -26 20 -9 -2 -16 6 -17 18 -1 12 -9 29 -18 38
-8 9 -41 52 -72 96 -31 44 -60 82 -65 85 -17 11 -11 23 13 27 12 2 21 9 20 15
-6 29 40 35 218 31 141 -3 179 -2 183 9 3 7 19 13 36 13 20 0 30 5 30 16 0 8
-4 13 -8 10 -19 -12 -62 -15 -55 -4 7 13 6 220 -2 259 -6 24 -9 26 -68 25 -34
-1 -110 0 -170 2 l-107 2 -6 30 c-5 20 -12 30 -25 30 -16 0 -18 -8 -14 -87z
m62 -255 c-3 -7 -5 -2 -5 12 0 14 2 19 5 13 2 -7 2 -19 0 -25z m-117 -44 c0
-16 -26 -19 -35 -4 -3 6 -4 14 0 20 8 13 35 1 35 -16z"/>
<path d="M2240 2280 c0 -6 4 -8 10 -5 5 3 19 1 31 -6 17 -9 20 -8 17 3 -6 16
-58 24 -58 8z"/>
<path d="M1218 2193 c-1 -4 -3 -24 -3 -43 0 -26 5 -35 19 -38 21 -4 38 16 28
33 -4 5 -7 19 -7 30 0 19 -30 34 -37 18z"/>
<path d="M583 2153 c15 -2 39 -2 55 0 15 2 2 4 -28 4 -30 0 -43 -2 -27 -4z"/>
<path d="M848 2143 c56 -2 148 -2 205 0 56 1 10 3 -103 3 -113 0 -159 -2 -102
-3z"/>
<path d="M125 2080 c-19 -8 -19 -9 2 -9 12 -1 25 4 28 9 7 12 -2 12 -30 0z"/>
<path d="M1468 2083 c7 -3 16 -2 19 1 4 3 -2 6 -13 5 -11 0 -14 -3 -6 -6z"/>
<path d="M2408 1955 c17 -8 32 -21 32 -28 0 -7 6 -22 14 -32 13 -18 14 -18 9
7 -6 32 -28 53 -63 62 -18 4 -16 2 8 -9z"/>
<path d="M2223 1913 c-4 -10 -16 -25 -28 -35 -11 -9 -17 -20 -12 -24 4 -4 14
2 23 14 17 25 39 29 47 8 6 -15 -11 -36 -29 -36 -7 0 -16 -5 -19 -10 -4 -6 3
-8 17 -6 13 2 33 -2 44 -10 20 -12 21 -11 17 9 -6 27 -43 107 -49 107 -3 0 -8
-8 -11 -17z"/>
<path d="M2465 1860 c3 -5 8 -10 11 -10 2 0 4 5 4 10 0 6 -5 10 -11 10 -5 0
-7 -4 -4 -10z"/>
<path d="M1598 1849 c-10 -5 -18 -15 -18 -21 0 -8 93 -131 263 -348 7 -9 25
-33 42 -55 16 -22 35 -47 42 -55 7 -8 39 -50 73 -92 33 -43 64 -78 69 -78 5 0
11 -9 14 -20 3 -11 12 -20 21 -20 8 0 13 -6 10 -13 -6 -16 34 -60 46 -52 6 3
7 -1 3 -11 -3 -10 0 -22 8 -28 8 -6 32 -36 54 -66 22 -30 48 -63 58 -72 9 -10
17 -22 17 -28 0 -5 7 -6 17 -3 9 4 14 2 10 -4 -3 -5 3 -24 14 -42 l20 -33 25
23 c29 28 29 29 2 59 -13 14 -23 19 -26 12 -7 -23 -22 -11 -16 13 5 20 3 25
-14 25 -14 0 -19 5 -15 18 6 24 -64 115 -84 108 -10 -4 -13 0 -11 17 2 16 -3
23 -20 25 -12 2 -19 8 -16 14 10 15 -17 58 -35 56 -10 -2 -15 3 -13 15 2 9 -4
20 -13 23 -8 3 -15 12 -15 19 0 7 -45 70 -101 141 -55 71 -131 170 -169 219
-146 191 -202 260 -213 262 -7 2 -20 -2 -29 -8z"/>
<path d="M2490 1796 c0 -2 7 -7 16 -10 8 -3 12 -2 9 4 -6 10 -25 14 -25 6z"/>
<path d="M2517 1740 c3 -11 7 -20 9 -20 2 0 4 9 4 20 0 11 -4 20 -9 20 -5 0
-7 -9 -4 -20z"/>
<path d="M2580 1580 c0 -5 5 -10 11 -10 5 0 7 5 4 10 -3 6 -8 10 -11 10 -2 0
-4 -4 -4 -10z"/>
<path d="M2431 1023 c-11 -12 -10 -15 8 -20 13 -3 21 -13 21 -27 0 -25 17 -46
37 -46 20 0 15 16 -16 52 -15 18 -30 38 -32 45 -3 7 -8 6 -18 -4z"/>
<path d="M2516 911 c-3 -5 1 -11 9 -15 8 -3 15 -1 15 4 0 13 -18 22 -24 11z"/>
<path d="M2550 861 c0 -19 54 -98 91 -133 9 -9 27 -35 40 -58 24 -43 27 -44
48 -31 11 7 8 18 -20 53 -19 23 -37 48 -42 53 -4 6 -21 26 -37 45 -17 19 -38
47 -47 63 -20 32 -33 35 -33 8z"/>
<path d="M2387 823 c-13 -12 -7 -43 8 -43 8 0 15 -7 15 -15 0 -14 143 -206
198 -267 22 -24 51 -30 37 -8 -3 5 -1 11 5 15 17 10 12 38 -6 31 -11 -4 -14
-1 -10 12 4 11 -8 36 -32 67 -96 128 -145 185 -153 179 -5 -3 -9 4 -9 15 0 15
-6 21 -23 21 -13 0 -27 -3 -30 -7z"/>
<path d="M2733 618 c2 -7 12 -12 21 -12 9 1 16 -3 16 -9 0 -6 2 -8 5 -5 3 3 3
13 -1 22 -7 19 -48 23 -41 4z"/>
<path d="M2710 433 c0 -6 8 -17 18 -24 16 -13 16 -13 2 6 -8 11 -16 22 -17 24
-2 2 -3 0 -3 -6z"/>
</g>
</svg>
