<?xml version="1.0" encoding="iso-8859-1"?>
<!-- Generator: Adobe Illustrator 19.0.0, SVG Export Plug-In . SVG Version: 6.00 Build 0)  -->
<svg version="1.1" id="Layer_1" xmlns="http://www.w3.org/2000/svg" xmlns:xlink="http://www.w3.org/1999/xlink" x="0px" y="0px"
	 viewBox="0 0 512 512" style="enable-background:new 0 0 512 512;" xml:space="preserve">
<g>
	<g>
		<path d="M379.006,5.346c-3.331-5.327-10.35-6.945-15.676-3.615l-17.608,11.008c-5.327,3.331-6.946,10.349-3.615,15.676
			c2.159,3.451,5.865,5.346,9.657,5.346c2.06,0,4.145-0.56,6.02-1.731l17.608-11.008C380.718,17.692,382.337,10.673,379.006,5.346z"
			/>
	</g>
</g>
<g>
	<g>
		<path d="M391.373,45.809h-28.614c-6.283,0-11.375,5.093-11.375,11.375c0,6.283,5.093,11.375,11.375,11.375h28.614
			c6.283,0,11.375-5.093,11.375-11.375C402.748,50.901,397.655,45.809,391.373,45.809z"/>
	</g>
</g>
<g>
	<g>
		<path d="M375.392,93.344l-17.609-11.007c-5.327-3.328-12.345-1.711-15.675,3.616c-3.331,5.327-1.711,12.346,3.616,15.675
			l17.608,11.007c1.875,1.172,3.96,1.731,6.02,1.731c3.791,0,7.499-1.895,9.657-5.348
			C382.339,103.692,380.719,96.674,375.392,93.344z"/>
	</g>
</g>
<g>
	<g>
		<path d="M403.746,429.539h-1.463V229.482c0-0.033-0.005-0.065-0.005-0.097c0-0.033,0.003-0.065,0.003-0.098
			c-0.662-38.544-16.171-74.675-43.671-101.738c-15.225-14.983-33.176-26.235-52.714-33.308V24.166
			c0-6.283-5.093-11.375-11.375-11.375h-77.042c-6.283,0-11.375,5.093-11.375,11.375v70.074
			c-19.536,7.073-37.489,18.326-52.714,33.308c-27.499,27.062-43.009,63.194-43.671,101.738c0,0.033,0.003,0.065,0.003,0.098
			c0,0.033-0.005,0.065-0.005,0.097v200.057h-1.463c-6.283,0-11.375,5.093-11.375,11.375v59.711c0,6.283,5.093,11.375,11.375,11.375
			h295.492c6.283,0,11.375-5.093,11.375-11.375v-59.711C415.121,434.632,410.028,429.539,403.746,429.539z M228.851,35.541h0.003
			h54.292v52.502c-4.443-0.83-8.939-1.461-13.479-1.879c-0.027-0.002-0.053-0.005-0.081-0.007c-1.083-0.099-2.168-0.189-3.257-0.265
			c-0.239-0.017-0.479-0.028-0.718-0.043c-0.888-0.058-1.777-0.114-2.669-0.155c-0.518-0.024-1.037-0.038-1.556-0.057
			c-0.63-0.023-1.259-0.051-1.891-0.066c-1.165-0.027-2.331-0.042-3.498-0.042c-1.167,0-2.333,0.015-3.498,0.042
			c-0.631,0.015-1.26,0.043-1.891,0.066c-0.519,0.019-1.037,0.032-1.556,0.057c-0.892,0.041-1.78,0.098-2.669,0.155
			c-0.239,0.016-0.479,0.026-0.718,0.043c-1.087,0.076-2.173,0.165-3.257,0.265c-0.027,0.002-0.053,0.005-0.081,0.007
			c-4.54,0.419-9.035,1.049-13.479,1.879V35.541z M138.714,193.143h158.108c6.283,0,11.375-5.093,11.375-11.375
			c0-6.283-5.093-11.375-11.375-11.375H148.979c19.046-32.872,52.796-56.318,91.918-61.175c0.223-0.027,0.445-0.059,0.668-0.084
			c0.703-0.083,1.408-0.156,2.115-0.228c0.772-0.076,1.545-0.147,2.319-0.209c0.498-0.041,0.995-0.083,1.496-0.118
			c1.155-0.078,2.31-0.14,3.468-0.188c0.367-0.015,0.735-0.027,1.102-0.04c1.31-0.041,2.622-0.07,3.936-0.07
			c1.314,0,2.625,0.03,3.936,0.07c0.367,0.011,0.735,0.024,1.102,0.04c1.158,0.047,2.314,0.108,3.468,0.188
			c0.499,0.034,0.998,0.077,1.496,0.118c0.773,0.063,1.547,0.132,2.318,0.209c0.706,0.072,1.412,0.144,2.115,0.228
			c0.222,0.026,0.444,0.057,0.665,0.084c56.215,6.978,101.341,52.341,107.687,108.888H133.213
			C134.179,209.493,136.047,201.14,138.714,193.143z M132.468,240.857h247.063v188.682H132.468V240.857z M119.63,489.25v-36.96
			h1.463h269.814h1.463v36.96H119.63z"/>
	</g>
</g>
<g>
	<g>
		<path d="M264.631,249.852c-2.164-2.515-5.315-3.962-8.631-3.962c-3.317,0-6.468,1.447-8.628,3.962
			c-6.085,7.083-59.45,70.2-59.45,104.735c0,37.539,30.541,68.08,68.08,68.08c37.539,0,68.08-30.541,68.08-68.08
			C324.081,320.052,270.716,256.935,264.631,249.852z M256,399.915c-24.994,0-45.329-20.334-45.329-45.329
			c0-17.161,25.075-54.157,45.331-79.481c20.255,25.311,45.327,62.298,45.327,79.481C301.328,379.582,280.995,399.915,256,399.915z"
			/>
	</g>
</g>
<g>
	<g>
		<path d="M341.304,179.547c-0.148-0.728-0.364-1.445-0.648-2.127c-0.284-0.694-0.637-1.354-1.047-1.968
			c-0.421-0.626-0.887-1.206-1.422-1.729c-0.523-0.523-1.103-1.001-1.729-1.411c-0.614-0.41-1.274-0.762-1.957-1.047
			c-0.683-0.284-1.399-0.5-2.127-0.648c-1.467-0.296-2.98-0.296-4.448,0c-0.728,0.148-1.445,0.364-2.127,0.648
			c-0.683,0.284-1.342,0.637-1.968,1.047c-0.626,0.409-1.206,0.887-1.729,1.411c-0.523,0.523-1.001,1.103-1.411,1.729
			c-0.409,0.614-0.762,1.274-1.047,1.968c-0.284,0.683-0.501,1.399-0.648,2.127c-0.148,0.728-0.227,1.479-0.227,2.218
			c0,0.739,0.08,1.49,0.227,2.23c0.148,0.717,0.364,1.433,0.648,2.127c0.284,0.683,0.637,1.342,1.047,1.957
			c0.409,0.626,0.887,1.206,1.411,1.729c0.523,0.523,1.103,1.001,1.729,1.422c0.626,0.41,1.285,0.762,1.968,1.047
			c0.683,0.284,1.399,0.5,2.127,0.648c0.739,0.148,1.479,0.216,2.218,0.216c0.751,0,1.49-0.068,2.23-0.216
			c0.728-0.148,1.445-0.364,2.127-0.648c0.682-0.284,1.342-0.637,1.957-1.047c0.626-0.421,1.206-0.899,1.729-1.422
			c0.535-0.523,1.001-1.103,1.422-1.729c0.409-0.614,0.762-1.274,1.047-1.957c0.284-0.694,0.5-1.411,0.648-2.127
			c0.148-0.739,0.228-1.49,0.228-2.23C341.531,181.026,341.452,180.275,341.304,179.547z"/>
	</g>
</g>
<g>
</g>
<g>
</g>
<g>
</g>
<g>
</g>
<g>
</g>
<g>
</g>
<g>
</g>
<g>
</g>
<g>
</g>
<g>
</g>
<g>
</g>
<g>
</g>
<g>
</g>
<g>
</g>
<g>
</g>
</svg>
